<svg xmlns="http://www.w3.org/2000/svg" width="214" height="208" viewBox="0 0 214 208" fill="none">
<defs><linearGradient id="bg" x1="0" y1="0" x2="208" y2="208"><stop stop-color="#A81948"/><stop offset=".91" stop-color="#770523"/></linearGradient><linearGradient id="shell" x1="103" y1="43" x2="174" y2="164"><stop stop-color="#964455"/><stop offset=".5" stop-color="#C86F8C"/><stop offset="1" stop-color="#E8A5B8"/></linearGradient><linearGradient id="skin" x1="34" y1="104" x2="91" y2="104"><stop stop-color="#A83C60" stop-opacity="0"/><stop offset="1" stop-color="#E8A5B8" stop-opacity=".72"/></linearGradient><linearGradient id="rim" x1="88" y1="39" x2="101" y2="169"><stop stop-color="#FFDDE6"/><stop offset=".53" stop-color="#D9829D"/><stop offset="1" stop-color="#A83C60"/></linearGradient></defs>
<rect width="208" height="208" fill="url(#bg)"/><path d="M88 57C63 57 43 75 34 104C43 133 63 151 88 151V57Z" fill="url(#skin)"><animate attributeName="d" values="M88 57C63 57 43 75 34 104C43 133 63 151 88 151V57Z;M88 60C66 60 48 77 40 104C48 131 66 148 88 148V60Z;M88 57C63 57 43 75 34 104C43 133 63 151 88 151V57Z" dur="2.2s" repeatCount="indefinite"/></path><path d="M101 46H127C158 46 180 72 180 104C180 139 159 162 127 162H101V132C117 128 126 116 137 115H162V93H137C126 92 117 80 101 76V46Z" fill="url(#shell)"/><path d="M101 76C117 80 126 92 137 93H162V115H137C126 116 117 128 101 132V76Z" fill="#F3B0C1"/><rect x="91" y="38" width="8" height="132" rx="4" fill="url(#rim)"/><rect x="83" y="48" width="5" height="112" rx="2.5" fill="#C86F8C"/><path d="M116 58C140 51 164 62 175 82" stroke="#FFDDE6" stroke-width="6" stroke-linecap="round" opacity=".35"/><path d="M63 104H162" stroke="#FFF9FA" stroke-width="2.5" stroke-linecap="round" stroke-dasharray="5 5"><animate attributeName="stroke-dashoffset" values="0;-20" dur="1s" repeatCount="indefinite"/></path><circle cx="63" cy="104" r="3.5" fill="#FFF9FA"/><circle cx="162" cy="104" r="3.5" fill="#FFF9FA"/><path d="M24 104L33 96V101H40V107H33V112L24 104Z" fill="#F7CAD6" opacity=".7"/><path d="M190 104L181 96V101H174V107H181V112L190 104Z" fill="#F7CAD6" opacity=".7"/>
</svg>
