<svg xmlns="http://www.w3.org/2000/svg" width="320" height="190" viewBox="0 0 320 190" fill="none">
<defs><linearGradient id="cup" x1="113" y1="31" x2="246" y2="164" gradientUnits="userSpaceOnUse"><stop stop-color="#FFDDE6"/><stop offset=".48" stop-color="#F3B0C1"/><stop offset="1" stop-color="#D9829D"/></linearGradient><linearGradient id="neck" x1="104" y1="76" x2="190" y2="118" gradientUnits="userSpaceOnUse"><stop stop-color="#A83C60"/><stop offset=".58" stop-color="#E98CA6"/><stop offset="1" stop-color="#FFDCE5"/></linearGradient><linearGradient id="rim" x1="82" y1="28" x2="101" y2="166" gradientUnits="userSpaceOnUse"><stop stop-color="#F2A9BC"/><stop offset=".55" stop-color="#C35A79"/><stop offset="1" stop-color="#812944"/></linearGradient></defs>
<path d="M111 34H166C211 34 246 66 246 99C246 137 218 163 166 163H111V125C134 122 147 111 163 110H184V87H163C147 86 135 75 111 72V34Z" fill="url(#cup)"/>
<path d="M111 72C135 75 147 86 163 87H184V110H163C147 111 134 122 111 125V72Z" fill="url(#neck)"/><ellipse cx="184" cy="98.5" rx="12" ry="21.5" fill="#FFE1E8"/>
<path d="M163 117L190 122L175 145L161 139L163 117Z" fill="#EB91AA"/><path d="M165 120L185 124L174 137" stroke="#FFE9EE" stroke-width="3" stroke-linecap="round"/>
<rect x="96" y="25" width="9" height="145" rx="4.5" fill="url(#rim)"/><rect x="85" y="37" width="6" height="121" rx="3" fill="#D97F99"/>
<path d="M129 47C168 37 211 50 229 75" stroke="#FFF0F4" stroke-width="7" stroke-linecap="round" opacity=".38"/><path d="M107 35V162" stroke="#FFF0F4" stroke-width="2"><animate attributeName="opacity" values=".35;.8;.35" dur="1.8s" repeatCount="indefinite"/></path>
</svg>
